<?xml version="1.0" standalone="no"?>
<!DOCTYPE svg PUBLIC "-//W3C//DTD SVG 20010904//EN"
 "http://www.w3.org/TR/2001/REC-SVG-20010904/DTD/svg10.dtd">
<svg version="1.0" xmlns="http://www.w3.org/2000/svg"
 width="363.000000pt" height="363.000000pt" viewBox="0 0 363.000000 363.000000"
 preserveAspectRatio="xMidYMid meet">
<metadata>
Created by potrace 1.14, written by Peter Selinger 2001-2017
</metadata>
<g transform="translate(0.000000,363.000000) scale(0.100000,-0.100000)"
fill="#000000" stroke="none">
<path d="M2670 3447 c0 -168 -82 -245 -270 -253 -41 -2 -75 -3 -75 -4 0 0 -56
-2 -125 -4 -181 -7 -266 -39 -334 -129 -29 -38 -64 -159 -62 -216 1 -32 4 -36
30 -39 37 -5 47 6 52 59 6 70 29 139 45 139 5 0 9 5 9 11 0 21 86 75 132 83
13 3 23 5 23 6 0 8 80 12 305 15 316 4 355 9 439 59 45 26 61 42 88 89 26 43
32 66 40 155 l6 62 -32 0 c-28 0 -31 -3 -32 -32 -5 -171 -76 -248 -241 -264
l-63 -7 48 48 c26 26 47 55 47 64 0 9 5 22 11 28 6 6 14 52 17 102 l5 91 -32
0 -31 0 0 -63z"/>
<path d="M1456 2773 c-4 -4 -6 -97 -6 -208 0 -110 1 -210 0 -222 l0 -22 -540
-3 c-537 -3 -540 -3 -561 -24 -28 -28 -33 -77 -13 -119 13 -27 24 -35 57 -42
23 -5 270 -8 550 -8 l507 1 0 -41 c0 -22 1 -122 1 -222 0 -129 3 -184 12 -190
6 -4 60 -6 119 -6 75 1 108 -3 109 -11 0 -6 2 -45 3 -86 3 -85 13 -130 29
-130 21 0 -3 -13 -30 -16 -15 -1 -44 -6 -63 -10 -19 -4 -37 -8 -40 -8 -3 -1
-18 -10 -34 -22 -30 -22 -42 -65 -26 -95 24 -43 71 -47 455 -38 112 3 174 -11
193 -41 10 -16 10 -24 0 -40 -23 -37 -95 -54 -264 -65 -147 -9 -232 -46 -241
-107 -8 -52 -9 -118 -2 -129 5 -9 54 -14 166 -16 189 -4 186 -3 244 -31 97
-47 141 -128 140 -257 -1 -87 -3 -111 -14 -121 -4 -4 -7 -18 -7 -31 0 -12 -4
-23 -10 -23 -5 0 -10 -6 -10 -12 0 -19 -60 -80 -99 -102 -45 -25 -133 -43
-199 -40 -30 1 -55 4 -58 6 -2 2 -4 103 -4 224 -1 121 -4 225 -8 232 -7 10
-96 15 -132 6 -13 -3 -15 -42 -13 -285 1 -155 4 -283 6 -286 15 -14 220 -19
317 -8 66 8 162 39 210 67 55 32 151 144 138 161 -2 2 2 10 8 18 31 38 47 192
30 282 -27 144 -100 230 -241 284 -66 26 -79 27 -237 28 -155 0 -168 1 -168
18 0 25 70 54 150 61 36 4 92 9 125 12 116 10 183 32 216 71 19 21 31 73 17
73 -5 0 -6 4 -3 10 9 14 -24 59 -54 75 -54 27 -119 30 -409 20 -110 -4 -149
-2 -169 9 l-27 14 30 15 c17 9 56 19 88 22 111 13 209 60 226 108 5 17 10 67
10 112 l0 82 115 0 c63 0 118 3 122 7 4 3 6 105 5 226 -1 121 2 221 6 221 4 1
242 2 528 3 556 2 558 2 584 50 22 41 19 73 -10 108 l-28 33 -540 3 -540 3 -1
197 c0 108 0 212 0 230 l-1 32 -353 0 c-195 0 -357 -3 -361 -7z"/>
<path d="M1335 2708 c-46 -27 -63 -77 -44 -135 11 -34 24 -43 87 -57 21 -5 22
-2 23 52 1 62 1 120 0 140 -1 15 -39 15 -66 0z"/>
<path d="M2209 2719 c-1 -2 -2 -46 -3 -97 -2 -103 7 -118 53 -100 46 17 66 48
65 98 0 46 -21 80 -55 89 -32 9 -59 13 -60 10z"/>
<path d="M1270 939 c-68 -18 -112 -37 -121 -51 -4 -5 0 -32 9 -58 l15 -48 46
20 c63 27 154 32 198 11 58 -27 72 -90 34 -141 -29 -40 -57 -52 -131 -59 -80
-7 -80 -6 -77 -60 l2 -48 43 -1 c98 -4 132 -14 170 -52 61 -61 52 -142 -20
-194 -28 -20 -44 -23 -113 -22 -58 1 -93 7 -128 23 -35 15 -49 17 -52 8 -3 -6
-11 -31 -20 -55 l-15 -43 43 -19 c55 -24 86 -30 177 -34 226 -10 376 147 306
320 -21 52 -79 103 -125 110 -32 6 -28 21 12 42 81 43 116 123 93 212 -14 53
-58 102 -113 125 -44 19 -182 27 -233 14z"/>
</g>
</svg>
